<svg width="24" height="24" viewBox="0 0 24 24" fill="none" xmlns="http://www.w3.org/2000/svg">
<path d="M12 6.44V9.77" stroke="white" stroke-width="1.5" stroke-miterlimit="10" stroke-linecap="round"/>
<path d="M12.0209 2C8.34087 2 5.36087 4.98 5.36087 8.66V10.76C5.36087 11.44 5.08087 12.46 4.73087 13.04L3.46087 15.16C2.68087 16.47 3.22087 17.93 4.66087 18.41C9.44087 20 14.6109 20 19.3909 18.41C20.7409 17.96 21.3209 16.38 20.5909 15.16L19.3209 13.04C18.9709 12.46 18.6909 11.43 18.6909 10.76V8.66C18.6809 5 15.6809 2 12.0209 2Z" stroke="white" stroke-width="1.5" stroke-miterlimit="10" stroke-linecap="round"/>
<path d="M15.33 18.82C15.33 20.65 13.83 22.15 12 22.15C11.09 22.15 10.25 21.77 9.64998 21.17C9.04998 20.57 8.66998 19.73 8.66998 18.82" stroke="white" stroke-width="1.5" stroke-miterlimit="10"/>
</svg>
